<svg width="37" height="37" viewBox="0 0 37 37" fill="none" xmlns="http://www.w3.org/2000/svg">
<path d="M24.2812 13.875V8.09375C24.2812 7.17378 23.9158 6.29149 23.2653 5.64097C22.6148 4.99046 21.7325 4.625 20.8125 4.625H11.5625C10.6425 4.625 9.76024 4.99046 9.10972 5.64097C8.45921 6.29149 8.09375 7.17378 8.09375 8.09375V28.9062C8.09375 29.8262 8.45921 30.7085 9.10972 31.359C9.76024 32.0095 10.6425 32.375 11.5625 32.375H20.8125C21.7325 32.375 22.6148 32.0095 23.2653 31.359C23.9158 30.7085 24.2812 29.8262 24.2812 28.9062V23.125M28.9062 23.125L33.5312 18.5M33.5312 18.5L28.9062 13.875M33.5312 18.5H13.875" stroke="white" stroke-width="2.3125" stroke-linecap="round" stroke-linejoin="round"/>
</svg>
